<svg width="25" height="24" viewBox="0 0 25 24" fill="none" xmlns="http://www.w3.org/2000/svg">
<path fill-rule="evenodd" clip-rule="evenodd" d="M12.8334 21C17.8039 21 21.8334 16.9706 21.8334 12C21.8334 7.02944 17.8039 3 12.8334 3C7.86281 3 3.83337 7.02944 3.83337 12C3.83337 16.9706 7.86281 21 12.8334 21ZM17.6016 9.64021C17.9552 9.21593 17.8978 8.58537 17.4736 8.2318C17.0493 7.87824 16.4187 7.93556 16.0651 8.35984L11.8334 13.438L10.1016 11.3598C9.74803 10.9356 9.11746 10.8782 8.69318 11.2318C8.26891 11.5854 8.21158 12.2159 8.56515 12.6402L11.0651 15.6402C11.2551 15.8682 11.5366 16 11.8334 16C12.1301 16 12.4116 15.8682 12.6016 15.6402L17.6016 9.64021Z" fill="#87D34C"/>
</svg>
