<svg width="72" height="72" viewBox="0 0 72 72" fill="none" xmlns="http://www.w3.org/2000/svg">
<g filter="url(#filter0_d_873_89172)">
<rect x="4" y="2" width="64" height="64" rx="8" fill="white"/>
<path fill-rule="evenodd" clip-rule="evenodd" d="M43.1149 52.5821L42.0509 52.6736V55.7721C42.0509 55.868 42.0158 55.9508 41.9458 56.0205C41.8757 56.099 41.7881 56.1426 41.683 56.1513L41.4203 56.1251C41.324 56.1251 41.2408 56.0903 41.1707 56.0205C41.1006 55.9508 41.0612 55.8637 41.0525 55.7591V52.752L39.857 52.7913C39.7607 52.7913 39.6775 52.7564 39.6075 52.6867C39.5374 52.6257 39.498 52.5385 39.4892 52.4252V52.2552C39.4892 52.0373 39.6118 51.9153 39.857 51.8891L43.1149 51.68C43.3339 51.68 43.4565 51.802 43.4827 52.046V52.216C43.4827 52.3119 43.4477 52.3947 43.3777 52.4644C43.3076 52.5341 43.22 52.5734 43.1149 52.5821ZM26.3789 52.6867C26.738 52.5298 27.0839 52.4513 27.4167 52.4513C27.9334 52.4513 28.3056 52.5821 28.5333 52.8436C28.7435 53.0789 28.8486 53.445 28.8486 53.9418V55.8244C28.8486 55.9988 28.7479 56.099 28.5464 56.1251H28.3363C28.2574 56.1251 28.1874 56.0946 28.1261 56.0336C28.0735 55.9813 28.0429 55.9116 28.0341 55.8244V55.6937C27.7539 56.0162 27.3992 56.1687 26.9701 56.1513C26.6723 56.1687 26.4139 56.0859 26.195 55.9029C25.9761 55.7111 25.8578 55.4758 25.8403 55.1969L25.8534 55.0923C25.8534 54.7175 25.9804 54.4255 26.2344 54.2163C26.4796 54.0159 26.7905 53.9156 27.1671 53.9156C27.4911 53.9156 27.7626 53.9897 27.9816 54.1379V54.0333C27.9816 53.4842 27.7583 53.2096 27.3116 53.2096C27.1102 53.2096 26.9088 53.2358 26.7073 53.2881C26.6811 53.3055 26.6285 53.3142 26.5497 53.3142C26.4271 53.3142 26.3439 53.2576 26.3001 53.1443L26.2475 53.0527L26.2344 52.922C26.2344 52.8174 26.2826 52.739 26.3789 52.6867ZM26.7993 55.0008C26.7993 55.2884 26.9701 55.4322 27.3116 55.4322C27.6094 55.4584 27.8415 55.3494 28.0078 55.1054V54.7262H27.9816V54.7131C27.7714 54.5911 27.5612 54.5345 27.351 54.5432C27.1934 54.5432 27.062 54.5824 26.9569 54.6608C26.8518 54.7393 26.7993 54.8526 26.7993 55.0008ZM35.3643 54.3994C35.2505 53.8415 35.3512 53.3317 35.6665 52.8697C35.9818 52.399 36.4153 52.107 36.967 51.9937L37.164 51.9807C37.6632 51.8848 38.123 51.9763 38.5434 52.2552C38.9725 52.5428 39.2353 52.9394 39.3316 53.445L39.3579 53.5496V53.7849C39.3579 53.9766 39.2571 54.103 39.0557 54.164L36.3364 54.5693C36.3977 54.8831 36.5641 55.1141 36.8356 55.2622C37.0896 55.4017 37.4093 55.4453 37.7946 55.393C38.0924 55.332 38.3901 55.21 38.6879 55.0269C38.8105 54.9136 38.9331 54.918 39.0557 55.04L39.1345 55.1315C39.1608 55.1577 39.2046 55.223 39.2659 55.3276C39.2659 55.4409 39.2221 55.5281 39.1345 55.5891C38.7667 55.8942 38.342 56.0859 37.8603 56.1644C37.2122 56.2602 36.6605 56.1513 36.2051 55.8375C35.7409 55.515 35.4607 55.0356 35.3643 54.3994ZM37.9785 52.9089C37.7508 52.752 37.5012 52.691 37.2297 52.7259C36.9407 52.7695 36.6999 52.9002 36.5072 53.1181C36.3145 53.3273 36.2095 53.5801 36.1919 53.8764L38.2938 53.5757C38.3639 53.5757 38.3989 53.567 38.3989 53.5496C38.3463 53.2794 38.2062 53.0658 37.9785 52.9089ZM34.5761 52.5951C34.5849 52.5951 34.5849 52.5995 34.5761 52.6082V55.8375C34.5849 55.9247 34.5586 55.9988 34.4973 56.0598C34.4448 56.1121 34.3747 56.1426 34.2871 56.1513H33.9587C33.8711 56.1513 33.8011 56.1251 33.7485 56.0728C33.6872 56.0118 33.6522 55.9421 33.6434 55.8637V53.3404L32.6976 53.4711L32.6713 53.8372C32.6013 54.6739 32.4568 55.271 32.2378 55.6283C32.0452 55.9508 31.7474 56.1382 31.3445 56.1905H31.3051C31.1387 56.1905 31.0468 56.1121 31.0293 55.9552L30.9767 55.6545V55.5368C30.9767 55.3973 31.0512 55.3058 31.2 55.2622C31.5241 55.0966 31.7167 54.565 31.778 53.6672L31.8306 52.8436C31.8306 52.7564 31.8612 52.6867 31.9226 52.6344C31.9839 52.5734 32.0539 52.5429 32.1327 52.5429L34.274 52.2944C34.3616 52.2944 34.4316 52.3249 34.4842 52.386C34.5455 52.4383 34.5761 52.508 34.5761 52.5951ZM29.7025 44.2801C29.7813 44.2016 29.8732 44.1668 29.9783 44.1755L30.5038 44.2016C30.6089 44.219 30.7008 44.2626 30.7797 44.3324C30.8497 44.4108 30.8804 44.5023 30.8716 44.6069L30.8453 45.6267C30.8103 46.2194 31.0512 46.5288 31.5679 46.5549C31.9707 46.5898 32.251 46.5462 32.4086 46.4242L32.6319 44.7377C32.6407 44.6331 32.6845 44.5415 32.7633 44.4631C32.8421 44.3934 32.9341 44.3629 33.0392 44.3716L33.4727 44.3977C33.5865 44.4064 33.6785 44.45 33.7485 44.5285C33.8274 44.6069 33.858 44.6984 33.8405 44.803V48.8037C33.8317 48.9083 33.7879 48.9998 33.7091 49.0782C33.6303 49.1567 33.5384 49.1872 33.4333 49.1698L32.6319 49.1436C32.5181 49.1349 32.4261 49.0913 32.3561 49.0129C32.286 48.9344 32.2553 48.8429 32.2641 48.7383L32.3429 47.4832C31.9313 47.6488 31.5285 47.7142 31.1344 47.6793C30.5301 47.6357 30.0966 47.444 29.8338 47.1041C29.5799 46.7816 29.4704 46.3109 29.5054 45.6921L29.5711 44.5415C29.5886 44.4369 29.6324 44.3498 29.7025 44.2801ZM39.6337 46.0843C39.6512 46.1366 39.66 46.2281 39.66 46.3588C39.66 46.4721 39.625 46.568 39.5549 46.6465C39.4848 46.7249 39.3973 46.7728 39.2922 46.7903L36.1919 47.1825C36.2883 47.5311 36.4809 47.7839 36.7699 47.9408C37.0414 48.0977 37.3699 48.1543 37.7552 48.1108C38.0792 48.0846 38.3901 47.9844 38.6879 47.81C38.793 47.749 38.8718 47.7142 38.9244 47.7055C39.082 47.7055 39.1915 47.7447 39.2528 47.8231L39.3579 47.9539C39.4104 48.041 39.4367 48.1064 39.4367 48.15C39.4629 48.2894 39.4235 48.4071 39.3184 48.503C38.8543 48.8603 38.3376 49.0739 37.7683 49.1436C36.9977 49.2395 36.3496 49.0913 35.8241 48.6991C35.2987 48.2981 34.9878 47.7185 34.8914 46.9602C34.7951 46.2542 34.944 45.6398 35.3381 45.1168C35.7497 44.5677 36.3364 44.2496 37.0984 44.1624C37.7289 44.0839 38.285 44.219 38.7667 44.5677C39.2571 44.9338 39.5461 45.4393 39.6337 46.0843ZM37.1903 45.1952C36.5072 45.2824 36.1306 45.679 36.0606 46.385L38.3989 46.0974C38.3639 45.801 38.2412 45.5657 38.0311 45.3914C37.8121 45.217 37.5319 45.1517 37.1903 45.1952ZM38.0048 43.1165C37.7596 43.1165 37.545 43.0293 37.3611 42.855C37.1859 42.6807 37.0984 42.4671 37.0984 42.2144C37.0984 41.9703 37.1859 41.7568 37.3611 41.5737C37.545 41.3994 37.7596 41.3123 38.0048 41.3123C38.2588 41.3123 38.4777 41.3994 38.6616 41.5737C38.8368 41.7481 38.9244 41.9616 38.9244 42.2144C38.9244 42.4671 38.8368 42.6807 38.6616 42.855C38.4777 43.0293 38.2588 43.1165 38.0048 43.1165ZM36.008 41.9529C36.1832 42.1359 36.2708 42.3538 36.2708 42.6066C36.2708 42.8593 36.1832 43.0729 36.008 43.2472C35.8329 43.4215 35.6183 43.5087 35.3643 43.5087C35.1191 43.5087 34.9046 43.4215 34.7206 43.2472C34.5455 43.0729 34.4579 42.8593 34.4579 42.6066C34.4579 42.3538 34.5455 42.1359 34.7206 41.9529C34.8958 41.7786 35.1104 41.6914 35.3643 41.6914C35.6183 41.6914 35.8329 41.7786 36.008 41.9529ZM45.3876 42.4889L45.4532 43.0773C45.4708 43.2254 45.4313 43.3562 45.335 43.4695C45.2474 43.5828 45.1292 43.6481 44.9803 43.6656L43.4171 43.8355L43.8637 48.0192C43.8812 48.1674 43.8418 48.2981 43.7455 48.4115C43.6579 48.5248 43.5397 48.5901 43.3908 48.6076L42.8259 48.6468C42.6858 48.6642 42.5588 48.625 42.445 48.5291C42.3311 48.442 42.2654 48.3243 42.2479 48.1761L41.7881 43.9794L40.2249 44.1624C40.076 44.1711 39.949 44.1319 39.8439 44.0447C39.7301 43.9489 39.66 43.8268 39.6337 43.6787L39.568 43.1034C39.5593 42.9552 39.6031 42.8245 39.6994 42.7112C39.787 42.5979 39.9052 42.5325 40.0541 42.5151L44.7964 42.0183C44.9453 42.0095 45.0767 42.0488 45.1905 42.1359C45.3044 42.2231 45.37 42.3407 45.3876 42.4889ZM24.5398 52.1506H24.8813C24.9689 52.1506 25.0434 52.1811 25.1047 52.2421C25.1747 52.3119 25.2098 52.3903 25.2098 52.4775V55.7983C25.2098 55.8854 25.1747 55.9595 25.1047 56.0205C25.0434 56.0903 24.9689 56.1251 24.8813 56.1251H24.5135C24.4259 56.1251 24.3515 56.0903 24.2902 56.0205C24.2201 55.9595 24.1851 55.8854 24.1851 55.7983V54.3471H22.4511V55.7983C22.4511 55.8854 22.4204 55.9595 22.3591 56.0205C22.2891 56.0903 22.2102 56.1251 22.1227 56.1251H21.7548C21.6673 56.1251 21.5928 56.0903 21.5315 56.0205C21.4702 55.9595 21.4396 55.8854 21.4396 55.7983V51.863C21.4396 51.7758 21.4702 51.7018 21.5315 51.6407C21.5928 51.5797 21.6673 51.5492 21.7548 51.5492H22.1227C22.2102 51.5492 22.2891 51.5797 22.3591 51.6407C22.4204 51.7018 22.4511 51.7758 22.4511 51.863V53.4057H24.2114V52.4775C24.2114 52.3903 24.2464 52.3119 24.3165 52.2421C24.3778 52.1811 24.4522 52.1506 24.5398 52.1506ZM22.8058 44.5415C23.0948 43.5653 23.664 42.8376 24.5135 42.3582C25.3718 41.8788 26.2957 41.7873 27.2853 42.0836C28.0648 42.2667 28.7479 42.6502 29.3346 43.2341C29.466 43.3823 29.5098 43.5697 29.466 43.7963C29.4397 43.8748 29.3959 43.9445 29.3346 44.0055L29.0062 44.3324C28.8311 44.4892 28.6296 44.5459 28.4019 44.5023C28.3144 44.4675 28.2355 44.4152 28.1655 44.3454C27.8677 44.0578 27.4955 43.853 27.0489 43.731C26.5409 43.5741 26.0549 43.6176 25.5907 43.8617C25.1266 44.1145 24.8113 44.4936 24.6449 44.9991L24.6186 45.0645C24.4785 45.509 24.5179 45.9361 24.7368 46.3458C24.9558 46.7467 25.2886 47.0169 25.7352 47.1563C25.8228 47.1912 25.8841 47.2086 25.9191 47.2086C26.4271 47.2871 26.9131 47.2217 27.3773 47.0125C27.4649 46.9515 27.5743 46.921 27.7057 46.921C28.1173 46.9559 28.3713 47.2827 28.4676 47.9016C28.5727 48.5204 28.4195 48.8865 28.0078 48.9998C27.1408 49.3571 26.2782 49.3833 25.4199 49.0782C24.3165 48.7645 23.5283 48.1936 23.0554 47.3655C22.5737 46.5375 22.4905 45.5962 22.8058 44.5415ZM46.6487 51.9545C46.7888 51.9807 46.8588 52.0678 46.8588 52.216V52.3206L46.4738 54.173C46.4428 54.7228 46.2689 55.2078 45.9521 55.6282C45.7945 55.8113 45.5931 55.9638 45.3478 56.0858C45.1026 56.173 44.9012 56.2166 44.7436 56.2166V56.2035C44.4721 56.2035 44.2181 56.1338 43.9816 55.9943C43.7452 55.8549 43.5613 55.6675 43.4299 55.4321C43.316 55.1968 43.2898 54.9484 43.3511 54.6869C43.4211 54.4254 43.5656 54.2206 43.7846 54.0724C43.8546 54.0027 43.9466 53.9678 44.0605 53.9678C44.1655 53.9678 44.2575 54.0027 44.3363 54.0724L44.3495 54.0986C44.4195 54.1683 44.4545 54.2598 44.4545 54.3731C44.4545 54.4777 44.4151 54.5649 44.3363 54.6346L44.3232 54.6608C44.2794 54.7044 44.2444 54.7261 44.2181 54.7261C44.1655 54.7697 44.1305 54.8264 44.113 54.8961C44.0955 54.9658 44.1086 55.0312 44.1524 55.0922C44.24 55.2317 44.3626 55.3275 44.5202 55.3798C44.6866 55.4321 44.8443 55.4278 44.9931 55.3668C45.1245 55.3319 45.234 55.2535 45.3216 55.1314C45.4356 54.9592 45.5223 54.7817 45.5816 54.5989L44.1264 52.1768L44.087 52.0591C44.0695 52.0504 44.0608 52.0286 44.0608 51.9937C44.0432 51.8369 44.1089 51.7584 44.2578 51.7584L44.6125 51.7323C44.7614 51.6887 44.8752 51.7497 44.954 51.9153L45.7422 53.275C45.7773 53.3622 45.8167 53.4319 45.8605 53.4842L46.1101 52.1245C46.1363 52.0373 46.1626 51.9807 46.1889 51.9545C46.2239 51.9022 46.2896 51.8804 46.3859 51.8891L46.6487 51.9545ZM47.4763 50.2941C47.6514 50.3638 47.7127 50.4946 47.6602 50.6863C47.5989 50.8868 47.4763 50.9478 47.2924 50.8694C46.3728 50.512 45.3219 50.3115 44.1396 50.268C43.3426 50.2331 42.2698 50.2767 40.9211 50.3987C40.1066 50.4684 38.9594 50.5905 37.4793 50.7648C35.9029 50.9478 34.7644 51.0698 34.0638 51.1309C31.5941 51.3749 29.4441 51.4446 27.6137 51.34C25.2842 51.2006 23.1867 50.7779 21.3213 50.0719C21.1462 50.0021 21.0892 49.867 21.1505 49.6666C21.2031 49.4748 21.3257 49.4182 21.5184 49.4966C23.4188 50.2113 25.5688 50.6253 27.9684 50.7386C29.7725 50.8258 31.9707 50.743 34.563 50.4902C35.3249 50.4118 36.4634 50.281 37.9785 50.098C39.336 49.9498 40.4832 49.8365 41.4203 49.7581C42.6639 49.6622 43.6842 49.6361 44.4811 49.6796C45.5934 49.7494 46.5917 49.9542 47.4763 50.2941Z" fill="#009DE2"/>
<path d="M32.6974 36.2663C32.6241 36.0719 32.4105 35.9383 32.0566 35.8654C31.3853 35.7318 30.6042 35.7257 29.7132 35.8472H29.6217L29.2189 35.9383C28.9504 35.9869 28.6758 36.0719 28.3951 36.1934L25.7222 37.487L28.1571 41.3133L28.3951 39.5824C30.0916 38.5985 31.2694 37.8879 31.9284 37.4506C32.2336 37.2441 32.4472 37.0497 32.5692 36.8675C32.7279 36.6489 32.7706 36.4485 32.6974 36.2663ZM40.3499 28.1947L49.8148 21.6901L48.7713 20.4147L41.1554 22.2549L40.3499 28.1947Z" fill="#785591"/>
<path d="M28.1566 41.3138L28.358 39.9655L27.2596 39.9109L28.1566 41.3138Z" fill="#04070B"/>
<path d="M24.4037 33.606L27.4977 33.5331L30.1889 32.5128C29.8227 32.0512 29.4017 31.5532 28.9257 31.0187L27.8822 32.2941L26.7654 31.4742L26.0514 32.8225L24.8797 32.2577L24.4037 33.606ZM35.8093 16.4243L33.3012 17.2807L34.8939 19.2485L32.8801 20.3234L34.0151 22.0362L32.5139 22.9472L33.6856 24.5141L35.8093 16.4243Z" fill="#04070B"/>
<path d="M38.7566 16.2609L38.6833 16.2427C37.9633 16.1819 37.1333 16.1941 36.1935 16.2791L35.6443 16.3338L35.6077 16.4795C35.5955 16.5403 35.565 16.6678 35.5162 16.8622L33.5573 24.3142L33.539 24.3507L33.3559 25.0795C33.3437 25.1402 33.3254 25.1827 33.301 25.207L33.008 26.2638C32.9958 26.3245 32.9775 26.3671 32.9531 26.3913L32.3856 28.3774L32.2757 28.6507L31.7631 30.3087C31.4946 31.0861 31.3116 31.5477 31.2139 31.6934C30.982 32.07 30.5976 32.2886 30.0605 32.3494C29.8042 32.3737 29.4869 32.3737 29.1086 32.3494C28.3885 32.2765 27.3572 32.4162 26.0146 32.7684C25.4166 32.9263 24.904 33.0903 24.4768 33.2604C23.4516 33.6369 22.8352 33.892 22.6277 34.0256C22.4447 34.1471 22.3409 34.2625 22.3165 34.3718C22.2921 34.4811 22.3531 34.5297 22.4996 34.5176H22.5545C22.9817 34.4933 23.6957 34.554 24.6965 34.6998C25.7827 34.882 27.29 35.295 29.2184 35.9388C29.6578 36.0724 29.9629 36.1756 30.1338 36.2485C30.1826 36.2485 30.2497 36.2667 30.3352 36.3032L30.9576 36.5036C30.982 36.5157 31.2749 36.5947 31.8364 36.7404L32.5504 36.8498C34.0516 36.9591 35.327 36.4429 36.3766 35.301L36.578 35.0824C36.7367 34.9002 36.9197 34.6451 37.1272 34.3172L37.3652 33.8616L37.4018 33.807L37.4201 33.7523C37.5666 33.5701 37.7314 33.2786 37.9144 32.8778L40.331 28.268L40.3493 28.1952C40.5446 27.855 40.7582 27.442 40.9901 26.9562C41.6736 25.6079 42.1129 24.709 42.3082 24.2596L42.3631 24.1867C42.3875 24.126 42.3936 24.0895 42.3814 24.0774C42.4059 24.0531 42.4242 24.0106 42.4364 23.9498C42.7293 23.1481 42.9307 22.4376 43.0405 21.8181C43.1504 21.1864 43.187 20.6216 43.1504 20.1236C43.1015 19.2247 42.8269 18.4655 42.3265 17.8461C42.0702 17.5545 41.8261 17.3298 41.5942 17.1719L41.0816 16.8804C40.7887 16.7225 40.3615 16.5767 39.8001 16.4431C39.7513 16.4188 39.7025 16.4067 39.6536 16.4067C39.1776 16.3216 38.8786 16.273 38.7566 16.2609Z" fill="#FF5869"/>
<path d="M22.5182 34.5724C23.3115 34.5967 24.0255 34.6696 24.6602 34.791C25.9051 34.9854 27.4063 35.3923 29.1638 36.0118C29.7374 36.2061 30.3599 36.4187 31.0311 36.6495C31.5071 36.7831 31.977 36.8681 32.4408 36.9046C33.344 36.9653 34.0397 36.8803 34.5279 36.6495C35.1869 36.3944 35.8033 35.9693 36.3769 35.3741L36.8529 34.791L37.9147 32.8779C38.0124 32.6593 38.1954 32.307 38.4639 31.8211C38.9399 30.9344 39.5624 29.7501 40.3313 28.2682C40.7829 27.3815 40.9965 26.9503 40.9721 26.9745C41.6799 25.6384 42.1254 24.7395 42.3085 24.278C42.3817 24.0836 42.4183 23.9804 42.4183 23.9682L43.1506 20.142C42.8333 19.4496 42.2963 18.9516 41.5396 18.6479C40.966 18.4293 40.4411 18.3867 39.9652 18.5204C39.4648 18.6661 39.0254 19.0305 38.647 19.6136C38.4151 19.9658 38.0978 20.5975 37.695 21.5085L37.3289 22.4377C37.3289 22.4499 37.0909 23.2151 36.6149 24.7335L36.1389 26.2457C35.2479 29.0395 34.6072 30.8737 34.2166 31.7482C33.8017 32.635 33.2463 33.3395 32.5507 33.8618C31.7085 34.4813 30.8359 34.6696 29.9327 34.4266C29.0783 34.1958 28.1508 34.0561 27.15 34.0076C26.6007 33.9833 25.9234 33.9833 25.1178 34.0076C24.5076 34.0318 23.641 34.2201 22.5182 34.5724Z" fill="#FFC600"/>
<path d="M43.1874 17.1901C42.7114 17.0929 42.3269 17.0322 42.034 17.0079L35.663 16.2791L35.6813 16.3519L35.6996 16.4977L35.8461 17.1718C35.9926 18.01 36.2244 18.9635 36.5418 20.0324C36.676 20.4211 36.8408 20.7673 37.0361 21.071L37.0544 21.1074C37.1642 21.3018 37.3534 21.5326 37.6219 21.7998C38.4152 22.5893 39.532 23.2088 40.9722 23.6582L43.5352 24.132C44.6092 24.302 45.2683 24.3567 45.5124 24.296C45.8175 23.4457 46.0494 22.3646 46.2081 21.0528L46.2813 20.2511V20.1235C46.3057 19.9656 46.3057 19.753 46.2813 19.4858C46.2569 19.2793 46.2264 19.1336 46.1898 19.0485L46.0433 18.7023L45.9152 18.4837L45.6955 18.2286C45.549 18.0829 45.3415 17.931 45.073 17.7731L44.3774 17.4816C43.8892 17.348 43.4925 17.2508 43.1874 17.1901Z" fill="#FF5869"/>
<path d="M45.0543 16.9343C44.7858 17.0437 44.56 17.2259 44.3769 17.481L44.2121 17.7543C44.0413 18.0944 43.9924 18.4284 44.0657 18.7564C44.1267 19.0722 44.2915 19.2848 44.56 19.3941C44.7919 19.4913 45.0482 19.4852 45.3289 19.3759C45.6218 19.2422 45.8598 19.0175 46.0429 18.7017L46.1161 18.5742L46.2443 18.2826C46.3297 17.979 46.3297 17.6996 46.2443 17.4445C46.1588 17.1894 46.0002 17.0133 45.7683 16.9161C45.5486 16.819 45.3106 16.825 45.0543 16.9343Z" fill="#FF5869"/>
<path d="M45.6404 18.3194L45.6953 18.2283C45.8296 17.9125 45.8113 17.7 45.6404 17.5906C45.4573 17.4692 45.262 17.536 45.0546 17.7911L44.9813 17.8822C44.8837 18.0401 44.841 18.1858 44.8532 18.3194C44.8532 18.4652 44.902 18.5685 44.9996 18.6292C45.0973 18.6899 45.2071 18.696 45.3292 18.6474C45.4512 18.5867 45.555 18.4774 45.6404 18.3194Z" fill="#04070B"/>
<path d="M47.4346 18.3379C47.1417 18.0828 46.7389 18.0646 46.2263 18.2832C46.1287 18.3196 46.0189 18.3865 45.8968 18.4836C45.848 18.4958 45.8114 18.5261 45.787 18.5747C45.5184 18.8298 45.3537 19.097 45.2927 19.3764C45.2316 19.6679 45.2927 19.8927 45.4757 20.0506C45.671 20.2328 45.9334 20.2935 46.263 20.2328C46.5559 20.1963 46.8427 20.0566 47.1234 19.8137C47.3919 19.5829 47.5567 19.3278 47.6177 19.0485C47.6909 18.7569 47.6299 18.5201 47.4346 18.3379Z" fill="#FF5869"/>
<path d="M47.0864 19.0482C47.123 18.9268 47.1108 18.8357 47.0498 18.7749C46.9887 18.7021 46.8911 18.6717 46.7569 18.6838C46.6348 18.696 46.5189 18.7446 46.409 18.8296C46.3236 18.9025 46.2564 18.9814 46.2076 19.0665C46.1344 19.2001 46.1344 19.3155 46.2076 19.4127L46.2992 19.4855C46.4822 19.5706 46.6714 19.528 46.8667 19.358C46.9765 19.2608 47.0498 19.1576 47.0864 19.0482ZM38.3537 11.5233C38.4758 11.414 38.5307 11.2925 38.5185 11.1589C38.4819 10.8917 38.2317 10.7459 37.7679 10.7216C37.475 10.7095 37.1882 10.7945 36.9075 10.9767C36.6634 11.1467 36.462 11.3532 36.3033 11.5962C36.1325 11.8634 36.108 12.076 36.2301 12.2339C36.3033 12.3189 36.4071 12.3736 36.5413 12.3979C36.6634 12.4222 36.7671 12.4039 36.8525 12.3432C36.9136 12.3068 37.0905 12.1914 37.3835 11.997C37.6642 11.8148 37.8533 11.7176 37.951 11.7055C38.0974 11.6812 38.2317 11.6205 38.3537 11.5233ZM41.704 12.1974C41.7894 12.3189 41.8993 12.4039 42.0335 12.4525C42.241 12.5497 42.5584 12.8412 42.9855 13.3271C43.0588 13.4 43.1686 13.4425 43.3151 13.4546C43.4493 13.4668 43.5531 13.4364 43.6263 13.3635C43.7849 13.2178 43.8155 12.9991 43.7178 12.7076C43.6202 12.4282 43.4676 12.1792 43.2601 11.9606C43.0282 11.7176 42.7597 11.5658 42.4546 11.5051C41.9786 11.4443 41.6979 11.5415 41.6125 11.7966C41.5759 11.9302 41.6064 12.0638 41.704 12.1974Z" fill="#04070B"/>
<path d="M39.6538 16.4059L39.7454 16.2783C39.8552 15.9747 39.9162 15.7621 39.9284 15.6406C39.9895 15.2641 39.9773 14.9422 39.8918 14.6749C39.8186 14.3348 39.6904 14.0372 39.5074 13.7822C39.0924 13.2113 38.5371 12.8711 37.8414 12.7618C37.1579 12.6525 36.5294 12.7983 35.9557 13.1991C35.3943 13.6 35.0587 14.1405 34.9488 14.8207C34.839 15.4645 34.961 16.0597 35.315 16.6063L35.5163 16.8796L35.8093 17.1893C36.1876 17.493 36.5904 17.6691 37.0176 17.7177C37.8475 17.8513 38.5554 17.6388 39.1412 17.08L39.4524 16.7156C39.5135 16.6549 39.5806 16.5516 39.6538 16.4059Z" fill="#00BEB6"/>
<path d="M38.9398 16.6612L39.1961 17.0802C39.6233 17.6754 40.1725 18.0155 40.8438 18.1006C41.3564 18.1856 41.869 18.1066 42.3816 17.8637C42.6867 17.7301 42.9613 17.5115 43.2054 17.2078C43.4739 16.8555 43.6448 16.4547 43.718 16.0052C43.8279 15.325 43.6814 14.6995 43.2786 14.1286C42.8637 13.5698 42.3145 13.2358 41.631 13.1265C40.7888 13.0171 40.0809 13.2358 39.5073 13.7824C39.2754 13.9889 39.0862 14.25 38.9398 14.5659C38.8421 14.7966 38.775 15.0092 38.7384 15.2036C38.6774 15.5801 38.6896 15.902 38.775 16.1692L38.8116 16.2603C38.8238 16.3575 38.8665 16.4911 38.9398 16.6612Z" fill="#00BEB6"/>
<path d="M37.2005 16.7707C37.6033 16.8435 37.9816 16.7646 38.3356 16.5338C38.4332 16.4731 38.5614 16.3637 38.72 16.2058L38.775 16.1329C38.9214 15.975 39.013 15.7564 39.0496 15.477C39.0862 15.1369 39.0435 14.8211 38.9214 14.5296C38.6895 14.0194 38.2807 13.7097 37.6948 13.6003C37.2554 13.5274 36.8527 13.6246 36.4865 13.8919C36.1204 14.1469 35.9007 14.4931 35.8275 14.9304C35.7542 15.4163 35.8824 15.8536 36.2119 16.2423L36.2852 16.2969C36.5293 16.5642 36.8344 16.7221 37.2005 16.7707ZM39.91 14.6389C39.7514 14.8575 39.6537 15.0883 39.6171 15.3313C39.5805 15.6714 39.6232 15.9811 39.7453 16.2605L39.8368 16.4245C39.849 16.4609 39.9405 16.5763 40.1114 16.7707C40.3555 17.0014 40.6423 17.1411 40.9719 17.1897C41.1915 17.2383 41.4051 17.2262 41.6126 17.1533L42.052 16.9893C42.5036 16.7342 42.7599 16.3577 42.8209 15.8596C42.8941 15.4224 42.8026 15.0215 42.5463 14.6571C42.2778 14.3048 41.9238 14.0862 41.4845 14.0012C41.1915 13.9526 40.9047 13.989 40.624 14.1105C40.3311 14.2198 40.0931 14.3959 39.91 14.6389Z" fill="white"/>
<path d="M42.345 24.2415C42.406 24.1079 42.4426 24.0047 42.4548 23.9318C41.2831 23.6767 40.1847 23.2394 39.1595 22.6199C37.8291 21.8668 37.1578 21.0469 37.1456 20.1602C37.1456 20.0509 37.0907 19.9962 36.9809 19.9962C36.871 19.9962 36.8161 20.0509 36.8161 20.1602C36.8649 21.1198 37.5667 22.0187 38.9215 22.8568C39.9833 23.5006 41.1245 23.9622 42.345 24.2415Z" fill="white"/>
<path d="M41.1182 15.2949C41.228 15.2463 41.344 15.2402 41.466 15.2767C41.6003 15.301 41.704 15.3556 41.7773 15.4407C41.8505 15.5135 41.881 15.5864 41.8688 15.6593C41.8566 15.72 41.8688 15.7808 41.9054 15.8415C41.942 15.9022 41.9909 15.9387 42.0519 15.9508C42.2227 15.9751 42.3204 15.9144 42.3448 15.7686C42.4058 15.5621 42.357 15.3617 42.1983 15.1674C42.0519 14.9851 41.8444 14.8698 41.5759 14.8212C41.3318 14.7604 41.106 14.7847 40.8985 14.894C40.691 15.0034 40.5568 15.1613 40.4958 15.3678C40.4958 15.5014 40.5385 15.5864 40.6239 15.6229L40.6605 15.6411C40.8314 15.6654 40.929 15.6046 40.9534 15.4589C40.9656 15.386 41.0206 15.3313 41.1182 15.2949ZM36.8343 15.0763C36.8343 15.0277 36.8831 14.9791 36.9807 14.9305C37.054 14.8819 37.176 14.8698 37.3469 14.894C37.4811 14.9183 37.591 14.9791 37.6764 15.0763C37.7252 15.1613 37.7435 15.2281 37.7313 15.2767C37.7069 15.4467 37.774 15.5439 37.9327 15.5682C37.9937 15.5925 38.0548 15.5803 38.1158 15.5318C38.1768 15.4953 38.2134 15.4467 38.2256 15.386C38.2867 15.1795 38.2317 14.973 38.0609 14.7665C37.9022 14.6086 37.7008 14.4993 37.4567 14.4385C37.2004 14.3778 36.9746 14.4021 36.7793 14.5114C36.5352 14.6329 36.3949 14.7969 36.3583 15.0034C36.3583 15.137 36.4071 15.2281 36.5047 15.2767C36.5291 15.2767 36.5352 15.2706 36.523 15.2585C36.6939 15.2827 36.7977 15.222 36.8343 15.0763Z" fill="#04070B"/>
<path d="M38.5005 34.3348L38.885 35.2822L39.9102 34.1526C39.7638 34.1404 39.483 34.1647 39.0681 34.2255L38.5005 34.3348Z" fill="#04070B"/>
<path d="M36.7065 31.1645C36.023 31.2738 35.3578 31.5836 34.711 32.0937C34.0397 32.6161 33.6247 33.1687 33.4661 33.7518C33.283 34.432 33.4966 34.9968 34.1068 35.4463C34.3876 35.6528 34.8147 35.5738 35.3884 35.2094C35.6691 35.0272 35.9254 34.8389 36.1573 34.6446C36.3159 35.2398 36.5722 35.7682 36.9262 36.2297C37.0971 36.4484 37.2557 36.6124 37.4022 36.7217L38.8851 35.2823L38.5006 34.3348L37.9514 34.4624C38.3908 32.8954 38.5189 31.9723 38.3359 31.6929C38.0063 31.2192 37.4632 31.043 36.7065 31.1645Z" fill="#785591"/>
<path d="M32.7336 24.387C31.3545 24.5813 30.6405 24.6785 30.5916 24.6785L26.564 24.9518C26.4298 24.9518 26.3321 24.9396 26.2711 24.9154C26.1857 24.8789 26.1002 24.8182 26.0148 24.7332C24.6967 23.4699 23.1832 22.6196 21.4746 22.1823L21.1267 22.073C22.2252 22.7775 22.8537 23.5792 23.0124 24.4781C23.0246 24.5874 23.049 24.9579 23.0856 25.5895C23.11 26.0146 23.1832 26.3669 23.3053 26.6463C23.4029 26.8892 23.586 27.12 23.8545 27.3386C24.001 27.4601 24.239 27.6605 24.5685 27.9399C25.2032 28.5715 25.5998 29.5676 25.7585 30.928C26.4664 30.5515 27.4123 30.2296 28.5961 29.9624C29.8166 29.6951 30.9761 29.5615 32.0745 29.5615L33.4842 25.1158C34.7291 25.383 35.8154 25.8689 36.7429 26.5734C37.5607 27.205 38.2502 28.0189 38.8117 29.0149C39.2388 28.6141 39.6233 28.3651 39.965 28.2679C40.1237 28.2193 40.2458 28.2132 40.3312 28.2497L41.0269 26.9378C40.319 26.9985 39.6904 27.3994 39.1412 28.1403C39.0558 27.6059 38.8056 27.0775 38.3906 26.5552C37.9512 25.9964 37.4325 25.5288 36.8345 25.1522C36.1998 24.7514 35.5468 24.4902 34.8756 24.3687C34.3264 24.2716 33.6124 24.2776 32.7336 24.387Z" fill="#008E8A"/>
<path d="M24.5868 24.9518C24.9774 25.717 25.2093 26.4398 25.2825 27.12C30.4818 24.5327 34.3508 23.9314 36.8894 25.3162C38.1587 26.0085 38.9093 26.956 39.1412 28.1585L39.068 27.6848C38.2258 24.9275 34.9854 23.1662 29.3467 22.4009C27.577 22.158 25.6792 22.0305 23.6531 22.0183L21.1267 22.073C22.6645 22.4617 23.8179 23.4213 24.5868 24.9518Z" fill="#00BEB6"/>
<path d="M51.6638 20.5614L51.6455 20.3792C51.6333 20.1484 51.5479 19.9176 51.3892 19.6868L51.2977 19.5229C51.1024 19.2921 50.8522 19.1402 50.5471 19.0674C50.2541 18.9945 49.9795 19.0066 49.7232 19.1038C49.6134 19.1281 49.534 19.1645 49.4852 19.2131L49.3205 19.3224C48.9665 19.6383 48.7407 20.0087 48.6431 20.4339C48.5454 20.8226 48.6065 21.1445 48.8262 21.3996C49.0092 21.6182 49.2655 21.764 49.5951 21.8368C49.8758 21.8976 50.1626 21.8976 50.4555 21.8368C50.7606 21.7882 51.0047 21.685 51.1878 21.5271C51.2855 21.4542 51.3587 21.3753 51.4075 21.2902L51.5174 21.1445C51.615 20.9866 51.6638 20.7922 51.6638 20.5614Z" fill="#785591"/>
<path d="M50.4368 19.6131C50.2537 19.3459 50.0157 19.1697 49.7228 19.0847C49.6374 19.0969 49.5581 19.1333 49.4848 19.194C49.9608 19.2548 50.2904 19.5342 50.4734 20.0322C50.0585 20.0322 49.6862 20.0929 49.3567 20.2144C49.2834 20.2387 49.259 20.2751 49.2834 20.3237L49.3384 20.3784L49.4116 20.3966C49.7655 20.2873 50.15 20.2326 50.565 20.2326L50.6199 20.2144C50.6443 20.2022 50.6504 20.1719 50.6382 20.1233C50.6382 19.9775 50.5711 19.8075 50.4368 19.6131ZM51.7 20.5241L51.6817 20.3601C51.401 20.263 51.1813 20.1172 51.0227 19.9228C51.0959 19.8135 51.2362 19.7224 51.4437 19.6495L51.3522 19.5402L51.3339 19.5038C51.0776 19.601 50.9128 19.7285 50.8396 19.8864C50.8152 19.9228 50.8152 19.9532 50.8396 19.9775C50.9372 20.1354 51.0959 20.269 51.3156 20.3784C51.0959 20.4269 50.9189 20.4755 50.7847 20.5241C50.7725 20.5241 50.7541 20.5363 50.7297 20.5606V20.6517C50.9006 20.9189 51.1325 21.1254 51.4254 21.2711L51.517 21.1436C51.2851 20.9978 51.0959 20.8339 50.9494 20.6517C51.0104 20.6395 51.2607 20.597 51.7 20.5241Z" fill="#5A3777"/>
<path d="M34.6011 25.7896C34.3936 25.3766 34.0335 25.1519 33.5209 25.1154C33.2646 25.1033 32.7825 25.1458 32.0746 25.243C31.1715 25.4009 30.3843 25.741 29.713 26.2633C29.1882 26.6641 28.761 27.1439 28.4315 27.7027V27.7209C28.1874 28.1339 28.0348 28.5591 27.9738 28.9963C27.8884 29.6401 28.0836 30.1138 28.5596 30.4175L28.5779 30.4357L28.6878 30.4904C29.0173 30.6605 29.359 30.6969 29.713 30.5997C30.0669 30.5025 30.3293 30.29 30.5002 29.962C30.6101 29.7677 30.6528 29.549 30.6284 29.3061C30.6284 29.1725 30.604 29.0571 30.5551 28.9599C30.4819 28.802 30.3904 28.6562 30.2805 28.5226L30.0974 28.3222L30.189 28.2311C30.726 27.8545 31.3729 27.8242 32.1296 28.14L32.4591 28.2675C33.0205 28.4983 33.5148 28.474 33.942 28.1946C34.3082 27.9639 34.5584 27.5995 34.6926 27.1014C34.8269 26.6156 34.7964 26.1783 34.6011 25.7896Z" fill="#785591"/>
<path d="M28.889 29.0143C28.6693 29.3666 28.5655 29.6217 28.5777 29.7796C28.59 29.7917 28.6144 29.8221 28.651 29.8707C28.7364 29.8707 28.7669 29.8464 28.7425 29.7978C28.7669 29.6399 28.8463 29.4273 28.9805 29.1601C29.2612 29.3423 29.4504 29.5488 29.548 29.7796L29.6579 29.8343C29.7067 29.8585 29.7311 29.8343 29.7311 29.7614C29.7677 29.5549 29.8471 29.3484 29.9691 29.1419L30.1522 29.3423C30.2254 29.4516 30.2742 29.561 30.2986 29.6703L30.3902 29.7067L30.4634 29.6521C30.4756 29.6399 30.5122 29.561 30.5733 29.4152L30.5916 29.3059C30.5916 29.1723 30.5672 29.0629 30.5183 28.9779C30.5183 28.99 30.4756 29.1054 30.3902 29.3241L30.3536 29.397L30.262 29.2512C30.1644 29.1054 30.0606 29.0022 29.9508 28.9415L29.8776 28.9232L29.8226 28.9779C29.7006 29.2573 29.6274 29.4334 29.603 29.5063C29.4443 29.2876 29.249 29.1115 29.0171 28.9779C28.9927 28.9536 28.9683 28.9475 28.9439 28.9597L28.889 29.0143ZM28.6693 28.5224C28.7059 28.5467 28.7425 28.5406 28.7791 28.5042C29.0232 28.2977 29.3161 28.2127 29.6579 28.2491C29.8145 28.2633 29.9488 28.2936 30.0606 28.3402L30.1522 28.2673C29.9813 28.1701 29.8226 28.1155 29.6762 28.1033C29.2978 28.0426 28.9622 28.1398 28.6693 28.3949C28.6327 28.4313 28.6266 28.4677 28.651 28.5042L28.6693 28.5224Z" fill="#5A3777"/>
<path d="M38.5557 23.7127L40.0386 23.4577L40.6428 24.642L41.8694 24.0954L41.9426 24.0043C40.954 23.7006 40.0936 23.318 39.3613 22.8564C38.5069 22.3462 37.738 21.7267 37.0545 20.9979L36.7982 22.4009L38.2628 22.4373L38.5557 23.7127Z" fill="white"/>
</g>
<defs>
<filter id="filter0_d_873_89172" x="0" y="0" width="72" height="72" filterUnits="userSpaceOnUse" color-interpolation-filters="sRGB">
<feFlood flood-opacity="0" result="BackgroundImageFix"/>
<feColorMatrix in="SourceAlpha" type="matrix" values="0 0 0 0 0 0 0 0 0 0 0 0 0 0 0 0 0 0 127 0" result="hardAlpha"/>
<feOffset dy="2"/>
<feGaussianBlur stdDeviation="2"/>
<feColorMatrix type="matrix" values="0 0 0 0 0.222789 0 0 0 0 0.30413 0 0 0 0 0.499349 0 0 0 0.2 0"/>
<feBlend mode="normal" in2="BackgroundImageFix" result="effect1_dropShadow_873_89172"/>
<feBlend mode="normal" in="SourceGraphic" in2="effect1_dropShadow_873_89172" result="shape"/>
</filter>
</defs>
</svg>
