<svg width="54" height="54" viewBox="0 0 54 54" fill="none" xmlns="http://www.w3.org/2000/svg">
<g clip-path="url(#clip0_873_89230)">
<path d="M44.8723 27.9652C43.2828 11.7402 32.221 0.0136948 24.9803 0.0192079C17.7395 0.024721 6.69621 11.768 5.13224 27.9955C3.90233 40.7782 12.9108 49.9904 25.0196 49.9812C37.1284 49.972 46.1223 40.746 44.8723 27.9652Z" fill="#1BC8B3"/>
<path d="M42.0721 27.546C40.7066 13.6076 31.2038 3.53371 24.9834 3.53844C18.7631 3.54318 9.27612 13.6315 7.93256 27.572C6.87598 38.5533 14.6149 46.4672 25.0172 46.4593C35.4195 46.4514 43.146 38.5256 42.0721 27.546Z" fill="#53FFEA"/>
<path d="M37.7462 30.2778C40.5009 28.2988 40.8013 23.4496 38.4173 19.4469C36.0332 15.4442 31.8675 13.8037 29.1128 15.7827C26.3582 17.7618 26.0577 22.6109 28.4418 26.6137C30.8258 30.6164 34.9916 32.2569 37.7462 30.2778Z" fill="#1BC8B3"/>
<path d="M24.8446 31.4074C26.5767 30.1629 26.7641 27.1111 25.263 24.5908C23.762 22.0706 21.141 21.0364 19.4088 22.2809C17.6766 23.5253 17.4892 26.5772 18.9903 29.0974C20.4913 31.6176 23.1124 32.6518 24.8446 31.4074Z" fill="#1BC8B3"/>
<path d="M24.0932 16.9076C25.2239 16.0952 25.3532 14.1146 24.3819 12.4838C23.4106 10.853 21.7065 10.1896 20.5757 11.0019C19.445 11.8143 19.3157 13.7949 20.287 15.4257C21.2583 17.0565 22.9624 17.72 24.0932 16.9076Z" fill="#1BC8B3"/>
</g>
<rect x="35" y="35" width="18" height="18" rx="9" fill="#F0EEFB"/>
<path d="M44.5089 48H45.8189V46.4H46.8789V45.19H45.8189V40.5H44.1689L41.1189 45.27V46.4H44.5089V48ZM42.5289 45.19L44.5089 42.1V45.19H42.5289Z" fill="#2F2F45"/>
<rect x="35" y="35" width="18" height="18" rx="9" stroke="white" stroke-width="2"/>
<defs>
<clipPath id="clip0_873_89230">
<rect width="49.9607" height="49.962" rx="16" transform="matrix(1 -0.000761395 0.000786964 1 0 0.0380859)" fill="white"/>
</clipPath>
</defs>
</svg>
