<svg width="45" height="46" viewBox="0 0 45 46" fill="none" xmlns="http://www.w3.org/2000/svg">
<g clip-path="url(#clip0_873_89156)">
<circle r="22.5" transform="matrix(-1 0 0 1 22.5007 23)" fill="white"/>
<ellipse rx="18.2582" ry="18.1098" transform="matrix(-1 0 0 1 22.3151 22.9994)" fill="#4F58A2"/>
<ellipse rx="13.4631" ry="13.5366" transform="matrix(-1 0 0 1 22.3161 22.817)" fill="#76ADFF"/>
<ellipse rx="9.03689" ry="8.96341" transform="matrix(-1 0 0 1 22.315 23.0005)" fill="#E95191"/>
<ellipse rx="4.42623" ry="4.39024" transform="matrix(-1 0 0 1 22.5007 22.817)" fill="#FFDC82"/>
<path d="M1.05406 4.67898C2.15022 6.38115 4.65718 6.55339 5.77364 6.42674L1.8914 2.55127C1.15555 2.55127 0.320019 3.53914 1.05406 4.67898Z" fill="#474E8F"/>
<path d="M4.37675 1.34233C6.09808 2.41102 6.30807 4.91076 6.19789 6.02705L2.25808 2.20992C2.24708 1.47543 3.22407 0.626686 4.37675 1.34233Z" fill="#E95191"/>
<path fill-rule="evenodd" clip-rule="evenodd" d="M22.9624 22.5231C22.8126 22.3758 22.5717 22.3776 22.4241 22.5272L6.21299 38.5392C6.21299 38.5392 6.41052 38.7345 6.56029 38.8818C6.71005 39.029 6.75533 39.0724 6.75533 39.0724L22.9665 23.0604C23.114 22.9109 23.1122 22.6703 22.9624 22.5231Z" fill="#091526" fill-opacity="0.15"/>
<path fill-rule="evenodd" clip-rule="evenodd" d="M0.480929 0.611284C0.332291 0.759663 0.332291 1.00023 0.480929 1.14861L1.24215 1.90851C1.39079 2.05689 1.63178 2.05689 1.78042 1.90851C1.92905 1.76013 1.92905 1.51956 1.78042 1.37118L1.01919 0.611284C0.870556 0.462905 0.629567 0.462905 0.480929 0.611284Z" fill="#474E8F"/>
<path fill-rule="evenodd" clip-rule="evenodd" d="M1.24232 1.37142C1.09368 1.5198 1.09368 1.76037 1.24232 1.90874L22.4278 23.0621C22.5764 23.2105 22.8174 23.2105 22.9661 23.0621C23.1147 22.9137 23.1147 22.6731 22.9661 22.5247L1.78058 1.37142C1.63194 1.22304 1.39095 1.22304 1.24232 1.37142Z" fill="#FFA046"/>
</g>
<defs>
<clipPath id="clip0_873_89156">
<rect width="45" height="45" fill="white" transform="translate(0 0.5)"/>
</clipPath>
</defs>
</svg>
